{
	"patcher" : 	{
		"fileversion" : 1,
		"rect" : [ 25.0, 69.0, 315.0, 497.0 ],
		"bglocked" : 0,
		"defrect" : [ 25.0, 69.0, 315.0, 497.0 ],
		"openrect" : [ 0.0, 0.0, 0.0, 0.0 ],
		"openinpresentation" : 0,
		"default_fontsize" : 12.0,
		"default_fontface" : 0,
		"default_fontname" : "Arial",
		"gridonopen" : 0,
		"gridsize" : [ 10.0, 10.0 ],
		"gridsnaponopen" : 0,
		"toolbarvisible" : 1,
		"boxanimatetime" : 200,
		"imprint" : 0,
		"enablehscroll" : 1,
		"enablevscroll" : 1,
		"devicewidth" : 0.0,
		"boxes" : [ 			{
				"box" : 				{
					"maxclass" : "outlet",
					"patching_rect" : [ 197.0, 434.0, 25.0, 25.0 ],
					"numoutlets" : 0,
					"id" : "obj-14",
					"numinlets" : 1,
					"comment" : ""
				}

			}
, 			{
				"box" : 				{
					"maxclass" : "newobj",
					"text" : "change -1",
					"patching_rect" : [ 168.0, 131.0, 64.0, 20.0 ],
					"numoutlets" : 3,
					"id" : "obj-19",
					"outlettype" : [ "", "int", "int" ],
					"fontname" : "Arial",
					"numinlets" : 1,
					"fontsize" : 12.0
				}

			}
, 			{
				"box" : 				{
					"maxclass" : "newobj",
					"text" : "- 1",
					"patching_rect" : [ 244.0, 134.0, 32.5, 20.0 ],
					"numoutlets" : 1,
					"id" : "obj-17",
					"outlettype" : [ "int" ],
					"fontname" : "Arial",
					"numinlets" : 2,
					"fontsize" : 12.0
				}

			}
, 			{
				"box" : 				{
					"maxclass" : "newobj",
					"text" : "unpack",
					"patching_rect" : [ 90.0, 100.5, 49.0, 20.0 ],
					"numoutlets" : 2,
					"id" : "obj-16",
					"outlettype" : [ "int", "int" ],
					"fontname" : "Arial",
					"numinlets" : 1,
					"fontsize" : 12.0
				}

			}
, 			{
				"box" : 				{
					"maxclass" : "newobj",
					"text" : "clip 0 10000000",
					"patching_rect" : [ 168.0, 160.0, 95.0, 20.0 ],
					"numoutlets" : 1,
					"id" : "obj-13",
					"outlettype" : [ "" ],
					"fontname" : "Arial",
					"numinlets" : 3,
					"fontsize" : 12.0
				}

			}
, 			{
				"box" : 				{
					"maxclass" : "message",
					"text" : "$2 $1",
					"patching_rect" : [ 90.0, 78.5, 41.0, 18.0 ],
					"numoutlets" : 1,
					"id" : "obj-11",
					"outlettype" : [ "" ],
					"fontname" : "Arial",
					"numinlets" : 2,
					"fontsize" : 12.0
				}

			}
, 			{
				"box" : 				{
					"maxclass" : "newobj",
					"text" : "t b i",
					"patching_rect" : [ 168.0, 210.0, 63.5, 20.0 ],
					"numoutlets" : 2,
					"id" : "obj-35",
					"outlettype" : [ "bang", "int" ],
					"fontname" : "Arial",
					"numinlets" : 1,
					"fontsize" : 12.0
				}

			}
, 			{
				"box" : 				{
					"maxclass" : "newobj",
					"text" : "patcherargs",
					"patching_rect" : [ 90.0, 56.0, 74.0, 20.0 ],
					"numoutlets" : 2,
					"id" : "obj-33",
					"outlettype" : [ "", "" ],
					"fontname" : "Arial",
					"numinlets" : 1,
					"fontsize" : 12.0
				}

			}
, 			{
				"box" : 				{
					"maxclass" : "newobj",
					"text" : "change -1",
					"patching_rect" : [ 168.0, 185.0, 64.0, 20.0 ],
					"numoutlets" : 3,
					"id" : "obj-32",
					"outlettype" : [ "", "int", "int" ],
					"fontname" : "Arial",
					"numinlets" : 1,
					"fontsize" : 12.0
				}

			}
, 			{
				"box" : 				{
					"maxclass" : "inlet",
					"patching_rect" : [ 168.0, 20.0, 25.0, 25.0 ],
					"numoutlets" : 1,
					"id" : "obj-31",
					"outlettype" : [ "" ],
					"numinlets" : 0,
					"comment" : ""
				}

			}
, 			{
				"box" : 				{
					"maxclass" : "inlet",
					"patching_rect" : [ 63.0, 20.0, 25.0, 25.0 ],
					"numoutlets" : 1,
					"id" : "obj-30",
					"outlettype" : [ "" ],
					"numinlets" : 0,
					"comment" : ""
				}

			}
, 			{
				"box" : 				{
					"maxclass" : "outlet",
					"patching_rect" : [ 55.0, 434.0, 25.0, 25.0 ],
					"numoutlets" : 0,
					"id" : "obj-29",
					"numinlets" : 1,
					"comment" : ""
				}

			}
, 			{
				"box" : 				{
					"maxclass" : "inlet",
					"patching_rect" : [ 32.0, 20.0, 25.0, 25.0 ],
					"numoutlets" : 1,
					"id" : "obj-28",
					"outlettype" : [ "" ],
					"numinlets" : 0,
					"comment" : ""
				}

			}
, 			{
				"box" : 				{
					"maxclass" : "newobj",
					"text" : "zl reg",
					"patching_rect" : [ 32.0, 317.0, 53.0, 20.0 ],
					"numoutlets" : 2,
					"id" : "obj-2",
					"outlettype" : [ "", "" ],
					"fontname" : "Arial",
					"numinlets" : 2,
					"fontsize" : 12.0
				}

			}
, 			{
				"box" : 				{
					"maxclass" : "message",
					"text" : "-1",
					"patching_rect" : [ 168.0, 259.0, 32.0, 18.0 ],
					"numoutlets" : 1,
					"id" : "obj-26",
					"outlettype" : [ "" ],
					"fontname" : "Arial",
					"numinlets" : 2,
					"fontsize" : 12.0
				}

			}
, 			{
				"box" : 				{
					"maxclass" : "newobj",
					"text" : "uzi",
					"patching_rect" : [ 168.0, 236.0, 46.0, 20.0 ],
					"numoutlets" : 3,
					"id" : "obj-24",
					"outlettype" : [ "bang", "bang", "int" ],
					"fontname" : "Arial",
					"numinlets" : 2,
					"fontsize" : 12.0
				}

			}
, 			{
				"box" : 				{
					"maxclass" : "newobj",
					"text" : "zl stream",
					"patching_rect" : [ 168.0, 287.25, 64.0, 20.0 ],
					"numoutlets" : 2,
					"id" : "obj-10",
					"outlettype" : [ "", "" ],
					"fontname" : "Arial",
					"numinlets" : 2,
					"fontsize" : 12.0
				}

			}
, 			{
				"box" : 				{
					"maxclass" : "newobj",
					"text" : "sel 0",
					"patching_rect" : [ 55.0, 366.0, 55.0, 20.0 ],
					"numoutlets" : 2,
					"id" : "obj-9",
					"outlettype" : [ "bang", "" ],
					"fontname" : "Arial",
					"numinlets" : 2,
					"fontsize" : 12.0
				}

			}
, 			{
				"box" : 				{
					"maxclass" : "newobj",
					"text" : "zl sub",
					"patching_rect" : [ 32.0, 341.25, 42.0, 20.0 ],
					"numoutlets" : 2,
					"id" : "obj-8",
					"outlettype" : [ "", "" ],
					"fontname" : "Arial",
					"numinlets" : 2,
					"fontsize" : 12.0
				}

			}
, 			{
				"box" : 				{
					"maxclass" : "newobj",
					"text" : "i",
					"patching_rect" : [ 55.0, 401.0, 42.0, 20.0 ],
					"numoutlets" : 1,
					"id" : "obj-7",
					"outlettype" : [ "int" ],
					"fontname" : "Arial",
					"numinlets" : 2,
					"fontsize" : 12.0
				}

			}
, 			{
				"box" : 				{
					"maxclass" : "newobj",
					"text" : "t b i i",
					"patching_rect" : [ 32.0, 285.0, 65.0, 20.0 ],
					"numoutlets" : 3,
					"id" : "obj-4",
					"outlettype" : [ "bang", "int", "int" ],
					"fontname" : "Arial",
					"numinlets" : 1,
					"fontsize" : 12.0
				}

			}
, 			{
				"box" : 				{
					"maxclass" : "message",
					"text" : "clear, bang",
					"linecount" : 2,
					"patching_rect" : [ 63.0, 243.0, 41.0, 32.0 ],
					"numoutlets" : 1,
					"id" : "obj-3",
					"outlettype" : [ "" ],
					"fontname" : "Arial",
					"numinlets" : 2,
					"fontsize" : 12.0
				}

			}
, 			{
				"box" : 				{
					"maxclass" : "newobj",
					"text" : "urn #1",
					"patching_rect" : [ 32.0, 219.0, 50.0, 20.0 ],
					"numoutlets" : 2,
					"id" : "obj-1",
					"outlettype" : [ "int", "bang" ],
					"fontname" : "Arial",
					"numinlets" : 2,
					"fontsize" : 12.0
				}

			}
 ],
		"lines" : [ 			{
				"patchline" : 				{
					"source" : [ "obj-1", 1 ],
					"destination" : [ "obj-14", 0 ],
					"hidden" : 0,
					"midpoints" : [ 72.5, 240.0, 131.0, 240.0, 131.0, 359.0, 206.5, 359.0 ]
				}

			}
, 			{
				"patchline" : 				{
					"source" : [ "obj-30", 0 ],
					"destination" : [ "obj-1", 1 ],
					"hidden" : 0,
					"midpoints" : [  ]
				}

			}
, 			{
				"patchline" : 				{
					"source" : [ "obj-28", 0 ],
					"destination" : [ "obj-1", 0 ],
					"hidden" : 0,
					"midpoints" : [  ]
				}

			}
, 			{
				"patchline" : 				{
					"source" : [ "obj-1", 0 ],
					"destination" : [ "obj-4", 0 ],
					"hidden" : 0,
					"midpoints" : [  ]
				}

			}
, 			{
				"patchline" : 				{
					"source" : [ "obj-3", 0 ],
					"destination" : [ "obj-1", 0 ],
					"hidden" : 0,
					"midpoints" : [ 72.5, 279.0, 26.0, 279.0, 26.0, 210.0, 41.5, 210.0 ]
				}

			}
, 			{
				"patchline" : 				{
					"source" : [ "obj-1", 1 ],
					"destination" : [ "obj-3", 0 ],
					"hidden" : 0,
					"midpoints" : [  ]
				}

			}
, 			{
				"patchline" : 				{
					"source" : [ "obj-9", 1 ],
					"destination" : [ "obj-1", 0 ],
					"hidden" : 0,
					"midpoints" : [ 100.5, 392.0, 26.0, 392.0, 26.0, 210.0, 41.5, 210.0 ]
				}

			}
, 			{
				"patchline" : 				{
					"source" : [ "obj-16", 1 ],
					"destination" : [ "obj-1", 1 ],
					"hidden" : 0,
					"midpoints" : [ 129.5, 169.25, 72.5, 169.25 ]
				}

			}
, 			{
				"patchline" : 				{
					"source" : [ "obj-19", 0 ],
					"destination" : [ "obj-13", 0 ],
					"hidden" : 0,
					"midpoints" : [  ]
				}

			}
, 			{
				"patchline" : 				{
					"source" : [ "obj-31", 0 ],
					"destination" : [ "obj-19", 0 ],
					"hidden" : 0,
					"midpoints" : [  ]
				}

			}
, 			{
				"patchline" : 				{
					"source" : [ "obj-30", 0 ],
					"destination" : [ "obj-17", 0 ],
					"hidden" : 0,
					"midpoints" : [ 72.5, 51.0, 253.5, 51.0 ]
				}

			}
, 			{
				"patchline" : 				{
					"source" : [ "obj-16", 0 ],
					"destination" : [ "obj-13", 0 ],
					"hidden" : 0,
					"midpoints" : [ 99.5, 157.75, 177.5, 157.75 ]
				}

			}
, 			{
				"patchline" : 				{
					"source" : [ "obj-17", 0 ],
					"destination" : [ "obj-13", 2 ],
					"hidden" : 0,
					"midpoints" : [  ]
				}

			}
, 			{
				"patchline" : 				{
					"source" : [ "obj-16", 1 ],
					"destination" : [ "obj-17", 0 ],
					"hidden" : 0,
					"midpoints" : [ 129.5, 125.75, 253.5, 125.75 ]
				}

			}
, 			{
				"patchline" : 				{
					"source" : [ "obj-11", 0 ],
					"destination" : [ "obj-16", 0 ],
					"hidden" : 0,
					"midpoints" : [  ]
				}

			}
, 			{
				"patchline" : 				{
					"source" : [ "obj-13", 0 ],
					"destination" : [ "obj-32", 0 ],
					"hidden" : 0,
					"midpoints" : [  ]
				}

			}
, 			{
				"patchline" : 				{
					"source" : [ "obj-33", 0 ],
					"destination" : [ "obj-11", 0 ],
					"hidden" : 0,
					"midpoints" : [  ]
				}

			}
, 			{
				"patchline" : 				{
					"source" : [ "obj-9", 0 ],
					"destination" : [ "obj-7", 0 ],
					"hidden" : 0,
					"midpoints" : [  ]
				}

			}
, 			{
				"patchline" : 				{
					"source" : [ "obj-8", 1 ],
					"destination" : [ "obj-9", 0 ],
					"hidden" : 0,
					"midpoints" : [  ]
				}

			}
, 			{
				"patchline" : 				{
					"source" : [ "obj-2", 0 ],
					"destination" : [ "obj-8", 0 ],
					"hidden" : 0,
					"midpoints" : [  ]
				}

			}
, 			{
				"patchline" : 				{
					"source" : [ "obj-4", 2 ],
					"destination" : [ "obj-7", 1 ],
					"hidden" : 0,
					"midpoints" : [  ]
				}

			}
, 			{
				"patchline" : 				{
					"source" : [ "obj-4", 1 ],
					"destination" : [ "obj-8", 1 ],
					"hidden" : 0,
					"midpoints" : [  ]
				}

			}
, 			{
				"patchline" : 				{
					"source" : [ "obj-4", 0 ],
					"destination" : [ "obj-2", 0 ],
					"hidden" : 0,
					"midpoints" : [  ]
				}

			}
, 			{
				"patchline" : 				{
					"source" : [ "obj-7", 0 ],
					"destination" : [ "obj-29", 0 ],
					"hidden" : 0,
					"midpoints" : [  ]
				}

			}
, 			{
				"patchline" : 				{
					"source" : [ "obj-32", 0 ],
					"destination" : [ "obj-35", 0 ],
					"hidden" : 0,
					"midpoints" : [  ]
				}

			}
, 			{
				"patchline" : 				{
					"source" : [ "obj-35", 0 ],
					"destination" : [ "obj-24", 0 ],
					"hidden" : 0,
					"midpoints" : [  ]
				}

			}
, 			{
				"patchline" : 				{
					"source" : [ "obj-24", 0 ],
					"destination" : [ "obj-26", 0 ],
					"hidden" : 0,
					"midpoints" : [  ]
				}

			}
, 			{
				"patchline" : 				{
					"source" : [ "obj-10", 0 ],
					"destination" : [ "obj-2", 1 ],
					"hidden" : 0,
					"midpoints" : [ 177.5, 312.625, 75.5, 312.625 ]
				}

			}
, 			{
				"patchline" : 				{
					"source" : [ "obj-26", 0 ],
					"destination" : [ "obj-10", 0 ],
					"hidden" : 0,
					"midpoints" : [  ]
				}

			}
, 			{
				"patchline" : 				{
					"source" : [ "obj-7", 0 ],
					"destination" : [ "obj-10", 0 ],
					"hidden" : 0,
					"midpoints" : [ 64.5, 426.0, 163.0, 426.0, 163.0, 282.0, 177.5, 282.0 ]
				}

			}
, 			{
				"patchline" : 				{
					"source" : [ "obj-35", 1 ],
					"destination" : [ "obj-24", 1 ],
					"hidden" : 0,
					"midpoints" : [  ]
				}

			}
, 			{
				"patchline" : 				{
					"source" : [ "obj-35", 1 ],
					"destination" : [ "obj-10", 1 ],
					"hidden" : 0,
					"midpoints" : [  ]
				}

			}
 ]
	}

}
