{
	"patcher" : 	{
		"fileversion" : 1,
		"rect" : [ 457.0, 290.0, 658.0, 492.0 ],
		"bglocked" : 0,
		"defrect" : [ 457.0, 290.0, 658.0, 492.0 ],
		"openrect" : [ 0.0, 0.0, 0.0, 0.0 ],
		"openinpresentation" : 0,
		"default_fontsize" : 12.0,
		"default_fontface" : 0,
		"default_fontname" : "Arial",
		"gridonopen" : 0,
		"gridsize" : [ 10.0, 10.0 ],
		"gridsnaponopen" : 0,
		"toolbarvisible" : 1,
		"boxanimatetime" : 200,
		"imprint" : 0,
		"enablehscroll" : 1,
		"enablevscroll" : 1,
		"devicewidth" : 0.0,
		"boxes" : [ 			{
				"box" : 				{
					"maxclass" : "newobj",
					"text" : "s #0to",
					"id" : "obj-1",
					"fontname" : "Arial",
					"color" : [ 1.0, 0.890196, 0.090196, 1.0 ],
					"numinlets" : 1,
					"fontsize" : 12.0,
					"numoutlets" : 0,
					"patching_rect" : [ 292.0, 55.0, 91.0, 20.0 ]
				}

			}
, 			{
				"box" : 				{
					"maxclass" : "newobj",
					"text" : "- 1",
					"id" : "obj-2",
					"fontname" : "Arial",
					"numinlets" : 2,
					"fontsize" : 12.0,
					"numoutlets" : 1,
					"outlettype" : [ "int" ],
					"patching_rect" : [ 464.0, 325.0, 45.0, 20.0 ]
				}

			}
, 			{
				"box" : 				{
					"maxclass" : "newobj",
					"text" : "+ 1",
					"id" : "obj-3",
					"fontname" : "Arial",
					"numinlets" : 2,
					"fontsize" : 12.0,
					"numoutlets" : 1,
					"outlettype" : [ "int" ],
					"patching_rect" : [ 464.0, 369.0, 34.0, 20.0 ]
				}

			}
, 			{
				"box" : 				{
					"maxclass" : "newobj",
					"text" : "s #0to",
					"id" : "obj-4",
					"fontname" : "Arial",
					"color" : [ 1.0, 0.890196, 0.090196, 1.0 ],
					"numinlets" : 1,
					"fontsize" : 12.0,
					"numoutlets" : 0,
					"patching_rect" : [ 464.0, 391.0, 91.0, 20.0 ]
				}

			}
, 			{
				"box" : 				{
					"maxclass" : "newobj",
					"text" : "r #0from",
					"id" : "obj-5",
					"fontname" : "Arial",
					"color" : [ 1.0, 0.890196, 0.090196, 1.0 ],
					"numinlets" : 0,
					"fontsize" : 12.0,
					"numoutlets" : 1,
					"outlettype" : [ "" ],
					"patching_rect" : [ 481.0, 347.0, 93.0, 20.0 ]
				}

			}
, 			{
				"box" : 				{
					"maxclass" : "message",
					"text" : "max $1",
					"id" : "obj-6",
					"fontname" : "Arial",
					"numinlets" : 2,
					"fontsize" : 12.0,
					"numoutlets" : 1,
					"outlettype" : [ "" ],
					"patching_rect" : [ 49.0, 221.0, 72.0, 18.0 ]
				}

			}
, 			{
				"box" : 				{
					"maxclass" : "newobj",
					"text" : "r #0to",
					"id" : "obj-7",
					"fontname" : "Arial",
					"color" : [ 1.0, 0.890196, 0.090196, 1.0 ],
					"numinlets" : 0,
					"fontsize" : 12.0,
					"numoutlets" : 1,
					"outlettype" : [ "" ],
					"patching_rect" : [ 49.0, 199.0, 89.0, 20.0 ]
				}

			}
, 			{
				"box" : 				{
					"maxclass" : "newobj",
					"text" : "s #0from",
					"id" : "obj-8",
					"fontname" : "Arial",
					"color" : [ 1.0, 0.890196, 0.090196, 1.0 ],
					"numinlets" : 1,
					"fontsize" : 12.0,
					"numoutlets" : 0,
					"patching_rect" : [ 262.0, 77.0, 92.0, 20.0 ]
				}

			}
, 			{
				"box" : 				{
					"maxclass" : "newobj",
					"text" : "s #0doRst",
					"id" : "obj-9",
					"fontname" : "Arial",
					"color" : [ 1.0, 0.890196, 0.090196, 1.0 ],
					"numinlets" : 1,
					"fontsize" : 12.0,
					"numoutlets" : 0,
					"patching_rect" : [ 65.0, 53.0, 94.0, 20.0 ]
				}

			}
, 			{
				"box" : 				{
					"maxclass" : "newobj",
					"text" : "s #0doRst",
					"id" : "obj-10",
					"fontname" : "Arial",
					"color" : [ 1.0, 0.890196, 0.090196, 1.0 ],
					"numinlets" : 1,
					"fontsize" : 12.0,
					"numoutlets" : 0,
					"patching_rect" : [ 253.0, 99.0, 94.0, 20.0 ]
				}

			}
, 			{
				"box" : 				{
					"maxclass" : "newobj",
					"text" : "r #0doRst",
					"id" : "obj-11",
					"fontname" : "Arial",
					"color" : [ 1.0, 0.890196, 0.090196, 1.0 ],
					"numinlets" : 0,
					"fontsize" : 12.0,
					"numoutlets" : 1,
					"outlettype" : [ "" ],
					"patching_rect" : [ 350.0, 317.0, 93.0, 20.0 ]
				}

			}
, 			{
				"box" : 				{
					"maxclass" : "newobj",
					"text" : "s #0doRst",
					"id" : "obj-12",
					"fontname" : "Arial",
					"color" : [ 1.0, 0.890196, 0.090196, 1.0 ],
					"numinlets" : 1,
					"fontsize" : 12.0,
					"numoutlets" : 0,
					"patching_rect" : [ 135.0, 389.0, 94.0, 20.0 ]
				}

			}
, 			{
				"box" : 				{
					"maxclass" : "newobj",
					"text" : "s #0to",
					"id" : "obj-13",
					"fontname" : "Arial",
					"color" : [ 1.0, 0.890196, 0.090196, 1.0 ],
					"numinlets" : 1,
					"fontsize" : 12.0,
					"numoutlets" : 0,
					"patching_rect" : [ 532.0, 211.0, 91.0, 20.0 ]
				}

			}
, 			{
				"box" : 				{
					"maxclass" : "newobj",
					"text" : "s #0from",
					"id" : "obj-14",
					"fontname" : "Arial",
					"color" : [ 1.0, 0.890196, 0.090196, 1.0 ],
					"numinlets" : 1,
					"fontsize" : 12.0,
					"numoutlets" : 0,
					"patching_rect" : [ 490.0, 232.0, 92.0, 20.0 ]
				}

			}
, 			{
				"box" : 				{
					"maxclass" : "newobj",
					"text" : "route from to",
					"id" : "obj-15",
					"fontname" : "Arial",
					"numinlets" : 1,
					"fontsize" : 12.0,
					"numoutlets" : 3,
					"outlettype" : [ "", "", "" ],
					"patching_rect" : [ 490.0, 181.0, 79.0, 20.0 ]
				}

			}
, 			{
				"box" : 				{
					"maxclass" : "message",
					"text" : "setmin $1",
					"id" : "obj-16",
					"fontname" : "Arial",
					"numinlets" : 2,
					"fontsize" : 12.0,
					"numoutlets" : 1,
					"outlettype" : [ "" ],
					"patching_rect" : [ 28.0, 175.0, 73.0, 18.0 ]
				}

			}
, 			{
				"box" : 				{
					"maxclass" : "newobj",
					"text" : "r #0from",
					"id" : "obj-17",
					"fontname" : "Arial",
					"color" : [ 1.0, 0.890196, 0.090196, 1.0 ],
					"numinlets" : 0,
					"fontsize" : 12.0,
					"numoutlets" : 1,
					"outlettype" : [ "" ],
					"patching_rect" : [ 28.0, 153.0, 93.0, 20.0 ]
				}

			}
, 			{
				"box" : 				{
					"maxclass" : "newobj",
					"text" : "i",
					"id" : "obj-18",
					"fontname" : "Arial",
					"numinlets" : 2,
					"fontsize" : 12.0,
					"numoutlets" : 1,
					"outlettype" : [ "int" ],
					"patching_rect" : [ 350.0, 358.0, 30.0, 20.0 ]
				}

			}
, 			{
				"box" : 				{
					"maxclass" : "newobj",
					"text" : "r #0from",
					"id" : "obj-19",
					"fontname" : "Arial",
					"color" : [ 1.0, 0.890196, 0.090196, 1.0 ],
					"numinlets" : 0,
					"fontsize" : 12.0,
					"numoutlets" : 1,
					"outlettype" : [ "" ],
					"patching_rect" : [ 367.0, 337.0, 93.0, 20.0 ]
				}

			}
, 			{
				"box" : 				{
					"maxclass" : "newobj",
					"text" : "s #0rst",
					"id" : "obj-20",
					"fontname" : "Arial",
					"color" : [ 1.0, 0.890196, 0.090196, 1.0 ],
					"numinlets" : 1,
					"fontsize" : 12.0,
					"numoutlets" : 0,
					"patching_rect" : [ 350.0, 380.0, 92.0, 20.0 ]
				}

			}
, 			{
				"box" : 				{
					"maxclass" : "newobj",
					"text" : "r #0rst",
					"id" : "obj-21",
					"fontname" : "Arial",
					"color" : [ 1.0, 0.890196, 0.090196, 1.0 ],
					"numinlets" : 0,
					"fontsize" : 12.0,
					"numoutlets" : 1,
					"outlettype" : [ "" ],
					"patching_rect" : [ 167.0, 213.0, 93.0, 20.0 ]
				}

			}
, 			{
				"box" : 				{
					"maxclass" : "newobj",
					"text" : "t 1",
					"id" : "obj-22",
					"fontname" : "Arial",
					"numinlets" : 1,
					"fontsize" : 12.0,
					"numoutlets" : 1,
					"outlettype" : [ "int" ],
					"patching_rect" : [ 202.0, 56.0, 25.0, 20.0 ]
				}

			}
, 			{
				"box" : 				{
					"maxclass" : "newobj",
					"text" : "s #0metro",
					"id" : "obj-23",
					"fontname" : "Arial",
					"color" : [ 1.0, 0.890196, 0.090196, 1.0 ],
					"numinlets" : 1,
					"fontsize" : 12.0,
					"numoutlets" : 0,
					"patching_rect" : [ 232.0, 120.0, 116.0, 20.0 ]
				}

			}
, 			{
				"box" : 				{
					"maxclass" : "newobj",
					"text" : "t 0",
					"id" : "obj-24",
					"fontname" : "Arial",
					"numinlets" : 1,
					"fontsize" : 12.0,
					"numoutlets" : 1,
					"outlettype" : [ "int" ],
					"patching_rect" : [ 232.0, 56.0, 25.0, 20.0 ]
				}

			}
, 			{
				"box" : 				{
					"maxclass" : "newobj",
					"text" : "p clip 1",
					"id" : "obj-25",
					"fontname" : "Arial",
					"numinlets" : 1,
					"fontsize" : 12.0,
					"numoutlets" : 1,
					"outlettype" : [ "int" ],
					"patching_rect" : [ 406.0, 232.0, 55.0, 20.0 ],
					"patcher" : 					{
						"fileversion" : 1,
						"rect" : [ 10.0, 59.0, 128.0, 237.0 ],
						"bglocked" : 0,
						"defrect" : [ 10.0, 59.0, 128.0, 237.0 ],
						"openrect" : [ 0.0, 0.0, 0.0, 0.0 ],
						"openinpresentation" : 0,
						"default_fontsize" : 12.0,
						"default_fontface" : 0,
						"default_fontname" : "Arial",
						"gridonopen" : 0,
						"gridsize" : [ 10.0, 10.0 ],
						"gridsnaponopen" : 0,
						"toolbarvisible" : 1,
						"boxanimatetime" : 200,
						"imprint" : 0,
						"enablehscroll" : 1,
						"enablevscroll" : 1,
						"devicewidth" : 0.0,
						"boxes" : [ 							{
								"box" : 								{
									"maxclass" : "newobj",
									"text" : "t i i",
									"id" : "obj-1",
									"fontname" : "Arial",
									"numinlets" : 1,
									"fontsize" : 9.0,
									"numoutlets" : 2,
									"outlettype" : [ "int", "int" ],
									"patching_rect" : [ 14.0, 33.0, 27.0, 17.0 ]
								}

							}
, 							{
								"box" : 								{
									"maxclass" : "newobj",
									"text" : "t 1",
									"id" : "obj-2",
									"fontname" : "Arial",
									"numinlets" : 1,
									"fontsize" : 9.0,
									"numoutlets" : 1,
									"outlettype" : [ "int" ],
									"patching_rect" : [ 31.0, 128.0, 21.0, 17.0 ]
								}

							}
, 							{
								"box" : 								{
									"maxclass" : "newobj",
									"text" : "gate 2 1",
									"id" : "obj-3",
									"fontname" : "Arial",
									"numinlets" : 2,
									"fontsize" : 9.0,
									"numoutlets" : 2,
									"outlettype" : [ "", "" ],
									"patching_rect" : [ 31.0, 106.0, 47.0, 17.0 ]
								}

							}
, 							{
								"box" : 								{
									"maxclass" : "newobj",
									"text" : "> 1",
									"id" : "obj-4",
									"fontname" : "Arial",
									"numinlets" : 2,
									"fontsize" : 9.0,
									"numoutlets" : 1,
									"outlettype" : [ "int" ],
									"patching_rect" : [ 31.0, 56.0, 27.0, 17.0 ]
								}

							}
, 							{
								"box" : 								{
									"maxclass" : "newobj",
									"text" : "+ 1",
									"id" : "obj-5",
									"fontname" : "Arial",
									"numinlets" : 2,
									"fontsize" : 9.0,
									"numoutlets" : 1,
									"outlettype" : [ "int" ],
									"patching_rect" : [ 31.0, 81.0, 27.0, 17.0 ]
								}

							}
, 							{
								"box" : 								{
									"maxclass" : "inlet",
									"id" : "obj-6",
									"numinlets" : 0,
									"numoutlets" : 1,
									"outlettype" : [ "" ],
									"patching_rect" : [ 14.0, 13.0, 15.0, 15.0 ],
									"comment" : ""
								}

							}
, 							{
								"box" : 								{
									"maxclass" : "outlet",
									"id" : "obj-7",
									"numinlets" : 1,
									"numoutlets" : 0,
									"patching_rect" : [ 31.0, 150.0, 15.0, 15.0 ],
									"comment" : ""
								}

							}
 ],
						"lines" : [ 							{
								"patchline" : 								{
									"source" : [ "obj-1", 0 ],
									"destination" : [ "obj-3", 1 ],
									"hidden" : 0,
									"midpoints" : [ 23.5, 64.0, 68.5, 64.0 ]
								}

							}
, 							{
								"patchline" : 								{
									"source" : [ "obj-2", 0 ],
									"destination" : [ "obj-7", 0 ],
									"hidden" : 0,
									"midpoints" : [  ]
								}

							}
, 							{
								"patchline" : 								{
									"source" : [ "obj-3", 1 ],
									"destination" : [ "obj-7", 0 ],
									"hidden" : 0,
									"midpoints" : [ 68.5, 147.0, 40.0, 147.0 ]
								}

							}
, 							{
								"patchline" : 								{
									"source" : [ "obj-3", 0 ],
									"destination" : [ "obj-2", 0 ],
									"hidden" : 0,
									"midpoints" : [  ]
								}

							}
, 							{
								"patchline" : 								{
									"source" : [ "obj-5", 0 ],
									"destination" : [ "obj-3", 0 ],
									"hidden" : 0,
									"midpoints" : [  ]
								}

							}
, 							{
								"patchline" : 								{
									"source" : [ "obj-4", 0 ],
									"destination" : [ "obj-5", 0 ],
									"hidden" : 0,
									"midpoints" : [  ]
								}

							}
, 							{
								"patchline" : 								{
									"source" : [ "obj-1", 1 ],
									"destination" : [ "obj-4", 0 ],
									"hidden" : 0,
									"midpoints" : [  ]
								}

							}
, 							{
								"patchline" : 								{
									"source" : [ "obj-6", 0 ],
									"destination" : [ "obj-1", 0 ],
									"hidden" : 0,
									"midpoints" : [  ]
								}

							}
 ]
					}
,
					"saved_object_attributes" : 					{
						"fontname" : "Arial",
						"default_fontsize" : 12.0,
						"globalpatchername" : "",
						"fontface" : 0,
						"fontsize" : 12.0,
						"default_fontface" : 0,
						"default_fontname" : "Arial"
					}

				}

			}
, 			{
				"box" : 				{
					"maxclass" : "newobj",
					"text" : "s #0ms",
					"id" : "obj-26",
					"fontname" : "Arial",
					"color" : [ 1.0, 0.890196, 0.090196, 1.0 ],
					"numinlets" : 1,
					"fontsize" : 12.0,
					"numoutlets" : 0,
					"patching_rect" : [ 406.0, 254.0, 91.0, 20.0 ]
				}

			}
, 			{
				"box" : 				{
					"maxclass" : "newobj",
					"text" : "s #0metro",
					"id" : "obj-27",
					"fontname" : "Arial",
					"color" : [ 1.0, 0.890196, 0.090196, 1.0 ],
					"numinlets" : 1,
					"fontsize" : 12.0,
					"numoutlets" : 0,
					"patching_rect" : [ 165.0, 369.0, 121.0, 20.0 ]
				}

			}
, 			{
				"box" : 				{
					"maxclass" : "newobj",
					"text" : "s #0metro",
					"id" : "obj-28",
					"fontname" : "Arial",
					"color" : [ 1.0, 0.890196, 0.090196, 1.0 ],
					"numinlets" : 1,
					"fontsize" : 12.0,
					"numoutlets" : 0,
					"patching_rect" : [ 52.0, 120.0, 116.0, 20.0 ]
				}

			}
, 			{
				"box" : 				{
					"maxclass" : "newobj",
					"text" : "r #0metro",
					"id" : "obj-29",
					"fontname" : "Arial",
					"color" : [ 1.0, 0.890196, 0.090196, 1.0 ],
					"numinlets" : 0,
					"fontsize" : 12.0,
					"numoutlets" : 1,
					"outlettype" : [ "" ],
					"patching_rect" : [ 135.0, 150.0, 122.0, 20.0 ]
				}

			}
, 			{
				"box" : 				{
					"maxclass" : "newobj",
					"text" : "t i b i",
					"id" : "obj-30",
					"fontname" : "Arial",
					"numinlets" : 1,
					"fontsize" : 12.0,
					"numoutlets" : 3,
					"outlettype" : [ "int", "bang", "int" ],
					"patching_rect" : [ 135.0, 274.0, 98.0, 20.0 ]
				}

			}
, 			{
				"box" : 				{
					"maxclass" : "newobj",
					"text" : "r #0to",
					"id" : "obj-31",
					"fontname" : "Arial",
					"color" : [ 1.0, 0.890196, 0.090196, 1.0 ],
					"numinlets" : 0,
					"fontsize" : 12.0,
					"numoutlets" : 1,
					"outlettype" : [ "" ],
					"patching_rect" : [ 152.0, 305.0, 89.0, 20.0 ]
				}

			}
, 			{
				"box" : 				{
					"maxclass" : "newobj",
					"text" : "sel",
					"id" : "obj-32",
					"fontname" : "Arial",
					"numinlets" : 2,
					"fontsize" : 12.0,
					"numoutlets" : 2,
					"outlettype" : [ "bang", "" ],
					"patching_rect" : [ 135.0, 326.0, 33.0, 20.0 ]
				}

			}
, 			{
				"box" : 				{
					"maxclass" : "newobj",
					"text" : "t b b 0",
					"id" : "obj-33",
					"fontname" : "Arial",
					"numinlets" : 1,
					"fontsize" : 12.0,
					"numoutlets" : 3,
					"outlettype" : [ "bang", "bang", "int" ],
					"patching_rect" : [ 135.0, 347.0, 50.0, 20.0 ]
				}

			}
, 			{
				"box" : 				{
					"maxclass" : "newobj",
					"text" : "s #0nb",
					"id" : "obj-34",
					"fontname" : "Arial",
					"color" : [ 1.0, 0.890196, 0.090196, 1.0 ],
					"numinlets" : 1,
					"fontsize" : 12.0,
					"numoutlets" : 0,
					"patching_rect" : [ 109.0, 96.0, 92.0, 20.0 ]
				}

			}
, 			{
				"box" : 				{
					"maxclass" : "newobj",
					"text" : "t b i",
					"id" : "obj-35",
					"fontname" : "Arial",
					"numinlets" : 1,
					"fontsize" : 12.0,
					"numoutlets" : 2,
					"outlettype" : [ "bang", "int" ],
					"patching_rect" : [ 82.0, 73.0, 46.0, 20.0 ]
				}

			}
, 			{
				"box" : 				{
					"maxclass" : "newobj",
					"text" : "t 1 0",
					"id" : "obj-36",
					"fontname" : "Arial",
					"numinlets" : 1,
					"fontsize" : 12.0,
					"numoutlets" : 2,
					"outlettype" : [ "int", "int" ],
					"patching_rect" : [ 52.0, 97.0, 40.0, 20.0 ]
				}

			}
, 			{
				"box" : 				{
					"maxclass" : "newobj",
					"text" : "r #0nb",
					"id" : "obj-37",
					"fontname" : "Arial",
					"color" : [ 1.0, 0.890196, 0.090196, 1.0 ],
					"numinlets" : 0,
					"fontsize" : 12.0,
					"numoutlets" : 1,
					"outlettype" : [ "" ],
					"patching_rect" : [ 464.0, 303.0, 93.0, 20.0 ]
				}

			}
, 			{
				"box" : 				{
					"maxclass" : "newobj",
					"text" : "counter",
					"id" : "obj-38",
					"fontname" : "Arial",
					"numinlets" : 5,
					"fontsize" : 12.0,
					"numoutlets" : 4,
					"outlettype" : [ "int", "", "", "int" ],
					"patching_rect" : [ 135.0, 253.0, 98.0, 20.0 ]
				}

			}
, 			{
				"box" : 				{
					"maxclass" : "outlet",
					"id" : "obj-39",
					"numinlets" : 1,
					"numoutlets" : 0,
					"patching_rect" : [ 107.0, 416.0, 25.0, 25.0 ],
					"comment" : "Watch out"
				}

			}
, 			{
				"box" : 				{
					"maxclass" : "outlet",
					"id" : "obj-40",
					"numinlets" : 1,
					"numoutlets" : 0,
					"patching_rect" : [ 150.0, 416.0, 25.0, 25.0 ],
					"comment" : "Done banging bang (carry)"
				}

			}
, 			{
				"box" : 				{
					"maxclass" : "outlet",
					"id" : "obj-41",
					"numinlets" : 1,
					"numoutlets" : 0,
					"patching_rect" : [ 205.0, 416.0, 25.0, 25.0 ],
					"comment" : "Current Index"
				}

			}
, 			{
				"box" : 				{
					"maxclass" : "newobj",
					"text" : "r #0ms",
					"id" : "obj-42",
					"fontname" : "Arial",
					"color" : [ 1.0, 0.890196, 0.090196, 1.0 ],
					"numinlets" : 0,
					"fontsize" : 12.0,
					"numoutlets" : 1,
					"outlettype" : [ "" ],
					"patching_rect" : [ 162.0, 171.0, 92.0, 20.0 ]
				}

			}
, 			{
				"box" : 				{
					"maxclass" : "inlet",
					"id" : "obj-43",
					"numinlets" : 0,
					"numoutlets" : 1,
					"outlettype" : [ "" ],
					"patching_rect" : [ 52.0, 9.0, 25.0, 25.0 ],
					"comment" : "Start shooting bangs (bang or int)"
				}

			}
, 			{
				"box" : 				{
					"maxclass" : "inlet",
					"id" : "obj-44",
					"numinlets" : 0,
					"numoutlets" : 1,
					"outlettype" : [ "" ],
					"patching_rect" : [ 340.0, 197.0, 25.0, 25.0 ],
					"comment" : "How many bang to shoot (int)"
				}

			}
, 			{
				"box" : 				{
					"maxclass" : "inlet",
					"id" : "obj-45",
					"numinlets" : 0,
					"numoutlets" : 1,
					"outlettype" : [ "" ],
					"patching_rect" : [ 417.0, 197.0, 25.0, 25.0 ],
					"comment" : "Interval in ms (int)"
				}

			}
, 			{
				"box" : 				{
					"maxclass" : "newobj",
					"text" : "s #0nb",
					"id" : "obj-46",
					"fontname" : "Arial",
					"color" : [ 1.0, 0.890196, 0.090196, 1.0 ],
					"numinlets" : 1,
					"fontsize" : 12.0,
					"numoutlets" : 0,
					"patching_rect" : [ 329.0, 232.0, 92.0, 20.0 ]
				}

			}
, 			{
				"box" : 				{
					"maxclass" : "newobj",
					"text" : "unpack 10 10",
					"id" : "obj-47",
					"fontname" : "Arial",
					"numinlets" : 1,
					"fontsize" : 12.0,
					"numoutlets" : 2,
					"outlettype" : [ "int", "int" ],
					"patching_rect" : [ 329.0, 171.0, 83.0, 20.0 ]
				}

			}
, 			{
				"box" : 				{
					"maxclass" : "newobj",
					"text" : "patcherargs 10 10 @from 1",
					"id" : "obj-48",
					"fontname" : "Arial",
					"numinlets" : 1,
					"fontsize" : 12.0,
					"numoutlets" : 2,
					"outlettype" : [ "", "" ],
					"patching_rect" : [ 329.0, 149.0, 157.0, 20.0 ]
				}

			}
, 			{
				"box" : 				{
					"maxclass" : "newobj",
					"text" : "route bang int pause break resume continue stop from to",
					"id" : "obj-49",
					"fontname" : "Arial",
					"numinlets" : 1,
					"fontsize" : 12.0,
					"numoutlets" : 10,
					"outlettype" : [ "", "", "", "", "", "", "", "", "", "" ],
					"patching_rect" : [ 52.0, 30.0, 375.0, 20.0 ]
				}

			}
, 			{
				"box" : 				{
					"maxclass" : "newobj",
					"text" : "metro",
					"id" : "obj-50",
					"fontname" : "Arial",
					"numinlets" : 2,
					"fontsize" : 12.0,
					"numoutlets" : 1,
					"outlettype" : [ "bang" ],
					"patching_rect" : [ 135.0, 192.0, 46.0, 20.0 ]
				}

			}
 ],
		"lines" : [ 			{
				"patchline" : 				{
					"source" : [ "obj-15", 1 ],
					"destination" : [ "obj-13", 0 ],
					"hidden" : 0,
					"midpoints" : [  ]
				}

			}
, 			{
				"patchline" : 				{
					"source" : [ "obj-15", 0 ],
					"destination" : [ "obj-14", 0 ],
					"hidden" : 0,
					"midpoints" : [  ]
				}

			}
, 			{
				"patchline" : 				{
					"source" : [ "obj-48", 1 ],
					"destination" : [ "obj-15", 0 ],
					"hidden" : 0,
					"midpoints" : [  ]
				}

			}
, 			{
				"patchline" : 				{
					"source" : [ "obj-5", 0 ],
					"destination" : [ "obj-3", 1 ],
					"hidden" : 0,
					"midpoints" : [  ]
				}

			}
, 			{
				"patchline" : 				{
					"source" : [ "obj-3", 0 ],
					"destination" : [ "obj-4", 0 ],
					"hidden" : 0,
					"midpoints" : [  ]
				}

			}
, 			{
				"patchline" : 				{
					"source" : [ "obj-2", 0 ],
					"destination" : [ "obj-3", 0 ],
					"hidden" : 0,
					"midpoints" : [  ]
				}

			}
, 			{
				"patchline" : 				{
					"source" : [ "obj-37", 0 ],
					"destination" : [ "obj-2", 0 ],
					"hidden" : 0,
					"midpoints" : [  ]
				}

			}
, 			{
				"patchline" : 				{
					"source" : [ "obj-25", 0 ],
					"destination" : [ "obj-26", 0 ],
					"hidden" : 0,
					"midpoints" : [  ]
				}

			}
, 			{
				"patchline" : 				{
					"source" : [ "obj-45", 0 ],
					"destination" : [ "obj-25", 0 ],
					"hidden" : 0,
					"midpoints" : [  ]
				}

			}
, 			{
				"patchline" : 				{
					"source" : [ "obj-47", 1 ],
					"destination" : [ "obj-25", 0 ],
					"hidden" : 0,
					"midpoints" : [  ]
				}

			}
, 			{
				"patchline" : 				{
					"source" : [ "obj-19", 0 ],
					"destination" : [ "obj-18", 1 ],
					"hidden" : 0,
					"midpoints" : [  ]
				}

			}
, 			{
				"patchline" : 				{
					"source" : [ "obj-18", 0 ],
					"destination" : [ "obj-20", 0 ],
					"hidden" : 0,
					"midpoints" : [  ]
				}

			}
, 			{
				"patchline" : 				{
					"source" : [ "obj-11", 0 ],
					"destination" : [ "obj-18", 0 ],
					"hidden" : 0,
					"midpoints" : [  ]
				}

			}
, 			{
				"patchline" : 				{
					"source" : [ "obj-44", 0 ],
					"destination" : [ "obj-46", 0 ],
					"hidden" : 0,
					"midpoints" : [  ]
				}

			}
, 			{
				"patchline" : 				{
					"source" : [ "obj-47", 0 ],
					"destination" : [ "obj-46", 0 ],
					"hidden" : 0,
					"midpoints" : [  ]
				}

			}
, 			{
				"patchline" : 				{
					"source" : [ "obj-48", 0 ],
					"destination" : [ "obj-47", 0 ],
					"hidden" : 0,
					"midpoints" : [  ]
				}

			}
, 			{
				"patchline" : 				{
					"source" : [ "obj-49", 8 ],
					"destination" : [ "obj-1", 0 ],
					"hidden" : 0,
					"midpoints" : [  ]
				}

			}
, 			{
				"patchline" : 				{
					"source" : [ "obj-49", 7 ],
					"destination" : [ "obj-8", 0 ],
					"hidden" : 0,
					"midpoints" : [  ]
				}

			}
, 			{
				"patchline" : 				{
					"source" : [ "obj-49", 6 ],
					"destination" : [ "obj-10", 0 ],
					"hidden" : 0,
					"midpoints" : [ 298.833344, 51.0, 262.5, 51.0 ]
				}

			}
, 			{
				"patchline" : 				{
					"source" : [ "obj-22", 0 ],
					"destination" : [ "obj-23", 0 ],
					"hidden" : 0,
					"midpoints" : [ 211.5, 76.0, 241.5, 76.0 ]
				}

			}
, 			{
				"patchline" : 				{
					"source" : [ "obj-24", 0 ],
					"destination" : [ "obj-23", 0 ],
					"hidden" : 0,
					"midpoints" : [  ]
				}

			}
, 			{
				"patchline" : 				{
					"source" : [ "obj-49", 3 ],
					"destination" : [ "obj-24", 0 ],
					"hidden" : 0,
					"midpoints" : [ 180.166672, 51.0, 241.5, 51.0 ]
				}

			}
, 			{
				"patchline" : 				{
					"source" : [ "obj-49", 2 ],
					"destination" : [ "obj-24", 0 ],
					"hidden" : 0,
					"midpoints" : [ 140.611115, 51.0, 241.5, 51.0 ]
				}

			}
, 			{
				"patchline" : 				{
					"source" : [ "obj-49", 6 ],
					"destination" : [ "obj-24", 0 ],
					"hidden" : 0,
					"midpoints" : [  ]
				}

			}
, 			{
				"patchline" : 				{
					"source" : [ "obj-30", 2 ],
					"destination" : [ "obj-41", 0 ],
					"hidden" : 0,
					"midpoints" : [  ]
				}

			}
, 			{
				"patchline" : 				{
					"source" : [ "obj-49", 4 ],
					"destination" : [ "obj-22", 0 ],
					"hidden" : 0,
					"midpoints" : [  ]
				}

			}
, 			{
				"patchline" : 				{
					"source" : [ "obj-49", 5 ],
					"destination" : [ "obj-22", 0 ],
					"hidden" : 0,
					"midpoints" : [  ]
				}

			}
, 			{
				"patchline" : 				{
					"source" : [ "obj-21", 0 ],
					"destination" : [ "obj-38", 2 ],
					"hidden" : 0,
					"midpoints" : [  ]
				}

			}
, 			{
				"patchline" : 				{
					"source" : [ "obj-33", 2 ],
					"destination" : [ "obj-27", 0 ],
					"hidden" : 0,
					"midpoints" : [  ]
				}

			}
, 			{
				"patchline" : 				{
					"source" : [ "obj-42", 0 ],
					"destination" : [ "obj-50", 1 ],
					"hidden" : 0,
					"midpoints" : [  ]
				}

			}
, 			{
				"patchline" : 				{
					"source" : [ "obj-31", 0 ],
					"destination" : [ "obj-32", 1 ],
					"hidden" : 0,
					"midpoints" : [  ]
				}

			}
, 			{
				"patchline" : 				{
					"source" : [ "obj-33", 1 ],
					"destination" : [ "obj-40", 0 ],
					"hidden" : 0,
					"midpoints" : [  ]
				}

			}
, 			{
				"patchline" : 				{
					"source" : [ "obj-33", 0 ],
					"destination" : [ "obj-12", 0 ],
					"hidden" : 0,
					"midpoints" : [  ]
				}

			}
, 			{
				"patchline" : 				{
					"source" : [ "obj-32", 0 ],
					"destination" : [ "obj-33", 0 ],
					"hidden" : 0,
					"midpoints" : [  ]
				}

			}
, 			{
				"patchline" : 				{
					"source" : [ "obj-30", 0 ],
					"destination" : [ "obj-32", 0 ],
					"hidden" : 0,
					"midpoints" : [  ]
				}

			}
, 			{
				"patchline" : 				{
					"source" : [ "obj-38", 0 ],
					"destination" : [ "obj-30", 0 ],
					"hidden" : 0,
					"midpoints" : [  ]
				}

			}
, 			{
				"patchline" : 				{
					"source" : [ "obj-50", 0 ],
					"destination" : [ "obj-38", 0 ],
					"hidden" : 0,
					"midpoints" : [  ]
				}

			}
, 			{
				"patchline" : 				{
					"source" : [ "obj-16", 0 ],
					"destination" : [ "obj-38", 0 ],
					"hidden" : 0,
					"midpoints" : [ 37.5, 248.0, 144.5, 248.0 ]
				}

			}
, 			{
				"patchline" : 				{
					"source" : [ "obj-6", 0 ],
					"destination" : [ "obj-38", 0 ],
					"hidden" : 0,
					"midpoints" : [ 58.5, 248.0, 144.5, 248.0 ]
				}

			}
, 			{
				"patchline" : 				{
					"source" : [ "obj-29", 0 ],
					"destination" : [ "obj-50", 0 ],
					"hidden" : 0,
					"midpoints" : [  ]
				}

			}
, 			{
				"patchline" : 				{
					"source" : [ "obj-35", 1 ],
					"destination" : [ "obj-34", 0 ],
					"hidden" : 0,
					"midpoints" : [  ]
				}

			}
, 			{
				"patchline" : 				{
					"source" : [ "obj-30", 1 ],
					"destination" : [ "obj-39", 0 ],
					"hidden" : 0,
					"midpoints" : [ 184.0, 300.0, 116.5, 300.0 ]
				}

			}
, 			{
				"patchline" : 				{
					"source" : [ "obj-49", 1 ],
					"destination" : [ "obj-35", 0 ],
					"hidden" : 0,
					"midpoints" : [  ]
				}

			}
, 			{
				"patchline" : 				{
					"source" : [ "obj-49", 0 ],
					"destination" : [ "obj-9", 0 ],
					"hidden" : 0,
					"midpoints" : [  ]
				}

			}
, 			{
				"patchline" : 				{
					"source" : [ "obj-36", 0 ],
					"destination" : [ "obj-28", 0 ],
					"hidden" : 0,
					"midpoints" : [  ]
				}

			}
, 			{
				"patchline" : 				{
					"source" : [ "obj-36", 1 ],
					"destination" : [ "obj-28", 0 ],
					"hidden" : 0,
					"midpoints" : [  ]
				}

			}
, 			{
				"patchline" : 				{
					"source" : [ "obj-35", 0 ],
					"destination" : [ "obj-36", 0 ],
					"hidden" : 0,
					"midpoints" : [ 91.5, 93.0, 61.5, 93.0 ]
				}

			}
, 			{
				"patchline" : 				{
					"source" : [ "obj-49", 0 ],
					"destination" : [ "obj-36", 0 ],
					"hidden" : 0,
					"midpoints" : [  ]
				}

			}
, 			{
				"patchline" : 				{
					"source" : [ "obj-43", 0 ],
					"destination" : [ "obj-49", 0 ],
					"hidden" : 0,
					"midpoints" : [  ]
				}

			}
, 			{
				"patchline" : 				{
					"source" : [ "obj-7", 0 ],
					"destination" : [ "obj-6", 0 ],
					"hidden" : 0,
					"midpoints" : [  ]
				}

			}
, 			{
				"patchline" : 				{
					"source" : [ "obj-17", 0 ],
					"destination" : [ "obj-16", 0 ],
					"hidden" : 0,
					"midpoints" : [  ]
				}

			}
 ]
	}

}
